<svg xmlns="http://www.w3.org/2000/svg" width="620" height="400" style="background:#1a1a2e">
  <polygon points="37.74,263.56 270.00,108.72 270.00,263.56 37.74,108.72 " fill="#4cc9f0" fill-opacity="0.30" stroke="#90e0ef" stroke-width="2.0" stroke-linejoin="round"/>
  <circle cx="37.74" cy="263.56" r="3" fill="#90e0ef"/>
  <text x="37.74" y="256.56" font-family="monospace" font-size="6" fill="#90e0ef" stroke="#111" stroke-width="2" paint-order="stroke fill" text-anchor="middle">(-60,-40)</text>
  <circle cx="270.00" cy="108.72" r="3" fill="#90e0ef"/>
  <text x="270.00" y="101.72" font-family="monospace" font-size="6" fill="#90e0ef" stroke="#111" stroke-width="2" paint-order="stroke fill" text-anchor="middle">(60,40)</text>
  <circle cx="270.00" cy="263.56" r="3" fill="#90e0ef"/>
  <text x="270.00" y="256.56" font-family="monospace" font-size="6" fill="#90e0ef" stroke="#111" stroke-width="2" paint-order="stroke fill" text-anchor="middle">(60,-40)</text>
  <circle cx="37.74" cy="108.72" r="3" fill="#90e0ef"/>
  <text x="37.74" y="101.72" font-family="monospace" font-size="6" fill="#90e0ef" stroke="#111" stroke-width="2" paint-order="stroke fill" text-anchor="middle">(-60,40)</text>
  <text x="10.00" y="16.00" font-family="monospace" font-size="13" fill="#e0e0e0">basis</text>
  <polygon points="357.74,263.56 590.00,108.72 590.00,263.56 357.74,108.72 " fill="#4cc9f0" fill-opacity="0.06" stroke="#4cc9f0" stroke-width="1.0" stroke-dasharray="5 3" stroke-linejoin="round"/>
  <polygon points="478.17,179.70 362.04,102.28 350.00,108.72 350.00,263.56 362.04,270.00 478.17,192.58 " fill="#f72585" fill-opacity="0.40" stroke="#f72585" stroke-width="2.0" stroke-linejoin="round"/>
  <circle cx="478.17" cy="179.70" r="3" fill="#f72585"/>
  <text x="478.17" y="172.70" font-family="monospace" font-size="6" fill="#f72585" stroke="#111" stroke-width="2" paint-order="stroke fill" text-anchor="middle">(2,3)</text>
  <circle cx="362.04" cy="102.28" r="3" fill="#f72585"/>
  <text x="362.04" y="95.28" font-family="monospace" font-size="6" fill="#f72585" stroke="#111" stroke-width="2" paint-order="stroke fill" text-anchor="middle">(-57,43)</text>
  <circle cx="350.00" cy="108.72" r="3" fill="#f72585"/>
  <text x="350.00" y="101.72" font-family="monospace" font-size="6" fill="#f72585" stroke="#111" stroke-width="2" paint-order="stroke fill" text-anchor="middle">(-64,40)</text>
  <circle cx="350.00" cy="263.56" r="3" fill="#f72585"/>
  <text x="350.00" y="256.56" font-family="monospace" font-size="6" fill="#f72585" stroke="#111" stroke-width="2" paint-order="stroke fill" text-anchor="middle">(-64,-40)</text>
  <circle cx="362.04" cy="270.00" r="3" fill="#f72585"/>
  <text x="362.04" y="263.00" font-family="monospace" font-size="6" fill="#f72585" stroke="#111" stroke-width="2" paint-order="stroke fill" text-anchor="middle">(-57,-43)</text>
  <circle cx="478.17" cy="192.58" r="3" fill="#f72585"/>
  <text x="478.17" y="185.58" font-family="monospace" font-size="6" fill="#f72585" stroke="#111" stroke-width="2" paint-order="stroke fill" text-anchor="middle">(2,-3)</text>
  <text x="330.00" y="16.00" font-family="monospace" font-size="13" fill="#e0e0e0">result (1 contour)</text>
  <rect x="10.00" y="312.00" width="12" height="12" fill="#4cc9f0" rx="2"/>
  <text x="28.00" y="322.00" font-family="monospace" font-size="11" fill="#cccccc">basis</text>
  <rect x="10.00" y="330.00" width="12" height="12" fill="#f72585" rx="2"/>
  <text x="28.00" y="340.00" font-family="monospace" font-size="11" fill="#cccccc">contour 0</text>
  <text x="330.00" y="322.00" font-family="monospace" font-size="11" fill="#666666">Bowtie bevel out</text>
</svg>
