<svg xmlns="http://www.w3.org/2000/svg" width="620" height="400" style="background:#1a1a2e">
  <polygon points="37.74,262.33 270.00,107.49 270.00,262.33 37.74,107.49 " fill="#4cc9f0" fill-opacity="0.30" stroke="#90e0ef" stroke-width="2.0" stroke-linejoin="round"/>
  <circle cx="37.74" cy="262.33" r="3" fill="#90e0ef"/>
  <text x="37.74" y="255.33" font-family="monospace" font-size="6" fill="#90e0ef" stroke="#111" stroke-width="2" paint-order="stroke fill" text-anchor="middle">(-60,-40)</text>
  <circle cx="270.00" cy="107.49" r="3" fill="#90e0ef"/>
  <text x="270.00" y="100.49" font-family="monospace" font-size="6" fill="#90e0ef" stroke="#111" stroke-width="2" paint-order="stroke fill" text-anchor="middle">(60,40)</text>
  <circle cx="270.00" cy="262.33" r="3" fill="#90e0ef"/>
  <text x="270.00" y="255.33" font-family="monospace" font-size="6" fill="#90e0ef" stroke="#111" stroke-width="2" paint-order="stroke fill" text-anchor="middle">(60,-40)</text>
  <circle cx="37.74" cy="107.49" r="3" fill="#90e0ef"/>
  <text x="37.74" y="100.49" font-family="monospace" font-size="6" fill="#90e0ef" stroke="#111" stroke-width="2" paint-order="stroke fill" text-anchor="middle">(-60,40)</text>
  <text x="10.00" y="16.00" font-family="monospace" font-size="13" fill="#e0e0e0">basis</text>
  <polygon points="357.74,262.33 590.00,107.49 590.00,262.33 357.74,107.49 " fill="#4cc9f0" fill-opacity="0.06" stroke="#4cc9f0" stroke-width="1.0" stroke-dasharray="5 3" stroke-linejoin="round"/>
  <polygon points="481.61,184.91 478.17,178.46 362.04,101.04 356.73,99.81 351.92,102.38 350.00,107.49 350.00,262.33 351.92,267.43 356.73,270.00 362.04,268.77 478.17,191.35 " fill="#f72585" fill-opacity="0.40" stroke="#f72585" stroke-width="2.0" stroke-linejoin="round"/>
  <circle cx="481.61" cy="184.91" r="3" fill="#f72585"/>
  <text x="481.61" y="177.91" font-family="monospace" font-size="6" fill="#f72585" stroke="#111" stroke-width="2" paint-order="stroke fill" text-anchor="middle">(4,0)</text>
  <circle cx="478.17" cy="178.46" r="3" fill="#f72585"/>
  <text x="478.17" y="171.46" font-family="monospace" font-size="6" fill="#f72585" stroke="#111" stroke-width="2" paint-order="stroke fill" text-anchor="middle">(2,3)</text>
  <circle cx="362.04" cy="101.04" r="3" fill="#f72585"/>
  <text x="362.04" y="94.04" font-family="monospace" font-size="6" fill="#f72585" stroke="#111" stroke-width="2" paint-order="stroke fill" text-anchor="middle">(-57,43)</text>
  <circle cx="356.73" cy="99.81" r="3" fill="#f72585"/>
  <text x="356.73" y="92.81" font-family="monospace" font-size="6" fill="#f72585" stroke="#111" stroke-width="2" paint-order="stroke fill" text-anchor="middle">(-60,43)</text>
  <circle cx="351.92" cy="102.38" r="3" fill="#f72585"/>
  <text x="351.92" y="95.38" font-family="monospace" font-size="6" fill="#f72585" stroke="#111" stroke-width="2" paint-order="stroke fill" text-anchor="middle">(-63,42)</text>
  <circle cx="350.00" cy="107.49" r="3" fill="#f72585"/>
  <text x="350.00" y="100.49" font-family="monospace" font-size="6" fill="#f72585" stroke="#111" stroke-width="2" paint-order="stroke fill" text-anchor="middle">(-64,40)</text>
  <circle cx="350.00" cy="262.33" r="3" fill="#f72585"/>
  <text x="350.00" y="255.33" font-family="monospace" font-size="6" fill="#f72585" stroke="#111" stroke-width="2" paint-order="stroke fill" text-anchor="middle">(-64,-40)</text>
  <circle cx="351.92" cy="267.43" r="3" fill="#f72585"/>
  <text x="351.92" y="260.43" font-family="monospace" font-size="6" fill="#f72585" stroke="#111" stroke-width="2" paint-order="stroke fill" text-anchor="middle">(-63,-42)</text>
  <circle cx="356.73" cy="270.00" r="3" fill="#f72585"/>
  <text x="356.73" y="263.00" font-family="monospace" font-size="6" fill="#f72585" stroke="#111" stroke-width="2" paint-order="stroke fill" text-anchor="middle">(-60,-43)</text>
  <circle cx="362.04" cy="268.77" r="3" fill="#f72585"/>
  <text x="362.04" y="261.77" font-family="monospace" font-size="6" fill="#f72585" stroke="#111" stroke-width="2" paint-order="stroke fill" text-anchor="middle">(-57,-43)</text>
  <circle cx="478.17" cy="191.35" r="3" fill="#f72585"/>
  <text x="478.17" y="184.35" font-family="monospace" font-size="6" fill="#f72585" stroke="#111" stroke-width="2" paint-order="stroke fill" text-anchor="middle">(2,-3)</text>
  <text x="330.00" y="16.00" font-family="monospace" font-size="13" fill="#e0e0e0">result (1 contour)</text>
  <rect x="10.00" y="312.00" width="12" height="12" fill="#4cc9f0" rx="2"/>
  <text x="28.00" y="322.00" font-family="monospace" font-size="11" fill="#cccccc">basis</text>
  <rect x="10.00" y="330.00" width="12" height="12" fill="#f72585" rx="2"/>
  <text x="28.00" y="340.00" font-family="monospace" font-size="11" fill="#cccccc">contour 0</text>
  <text x="330.00" y="322.00" font-family="monospace" font-size="11" fill="#666666">Bowtie round out</text>
</svg>
