<svg xmlns="http://www.w3.org/2000/svg" width="620" height="400" style="background:#1a1a2e">
  <polygon points="30.00,270.00 70.00,270.00 70.00,162.00 150.00,162.00 150.00,270.00 190.00,270.00 190.00,30.00 150.00,30.00 150.00,138.00 70.00,138.00 70.00,30.00 30.00,30.00 " fill="#4cc9f0" fill-opacity="0.30" stroke="#90e0ef" stroke-width="2.0" stroke-linejoin="round"/>
  <circle cx="30.00" cy="270.00" r="3" fill="#90e0ef"/>
  <text x="30.00" y="263.00" font-family="monospace" font-size="6" fill="#90e0ef" stroke="#111" stroke-width="2" paint-order="stroke fill" text-anchor="middle">(-40,-60)</text>
  <circle cx="70.00" cy="270.00" r="3" fill="#90e0ef"/>
  <text x="70.00" y="263.00" font-family="monospace" font-size="6" fill="#90e0ef" stroke="#111" stroke-width="2" paint-order="stroke fill" text-anchor="middle">(-20,-60)</text>
  <circle cx="70.00" cy="162.00" r="3" fill="#90e0ef"/>
  <text x="70.00" y="155.00" font-family="monospace" font-size="6" fill="#90e0ef" stroke="#111" stroke-width="2" paint-order="stroke fill" text-anchor="middle">(-20,-6)</text>
  <circle cx="150.00" cy="162.00" r="3" fill="#90e0ef"/>
  <text x="150.00" y="155.00" font-family="monospace" font-size="6" fill="#90e0ef" stroke="#111" stroke-width="2" paint-order="stroke fill" text-anchor="middle">(20,-6)</text>
  <circle cx="150.00" cy="270.00" r="3" fill="#90e0ef"/>
  <text x="150.00" y="263.00" font-family="monospace" font-size="6" fill="#90e0ef" stroke="#111" stroke-width="2" paint-order="stroke fill" text-anchor="middle">(20,-60)</text>
  <circle cx="190.00" cy="270.00" r="3" fill="#90e0ef"/>
  <text x="190.00" y="263.00" font-family="monospace" font-size="6" fill="#90e0ef" stroke="#111" stroke-width="2" paint-order="stroke fill" text-anchor="middle">(40,-60)</text>
  <circle cx="190.00" cy="30.00" r="3" fill="#90e0ef"/>
  <text x="190.00" y="23.00" font-family="monospace" font-size="6" fill="#90e0ef" stroke="#111" stroke-width="2" paint-order="stroke fill" text-anchor="middle">(40,60)</text>
  <circle cx="150.00" cy="30.00" r="3" fill="#90e0ef"/>
  <text x="150.00" y="23.00" font-family="monospace" font-size="6" fill="#90e0ef" stroke="#111" stroke-width="2" paint-order="stroke fill" text-anchor="middle">(20,60)</text>
  <circle cx="150.00" cy="138.00" r="3" fill="#90e0ef"/>
  <text x="150.00" y="131.00" font-family="monospace" font-size="6" fill="#90e0ef" stroke="#111" stroke-width="2" paint-order="stroke fill" text-anchor="middle">(20,6)</text>
  <circle cx="70.00" cy="138.00" r="3" fill="#90e0ef"/>
  <text x="70.00" y="131.00" font-family="monospace" font-size="6" fill="#90e0ef" stroke="#111" stroke-width="2" paint-order="stroke fill" text-anchor="middle">(-20,6)</text>
  <circle cx="70.00" cy="30.00" r="3" fill="#90e0ef"/>
  <text x="70.00" y="23.00" font-family="monospace" font-size="6" fill="#90e0ef" stroke="#111" stroke-width="2" paint-order="stroke fill" text-anchor="middle">(-20,60)</text>
  <circle cx="30.00" cy="30.00" r="3" fill="#90e0ef"/>
  <text x="30.00" y="23.00" font-family="monospace" font-size="6" fill="#90e0ef" stroke="#111" stroke-width="2" paint-order="stroke fill" text-anchor="middle">(-40,60)</text>
  <text x="10.00" y="16.00" font-family="monospace" font-size="13" fill="#e0e0e0">basis</text>
  <polygon points="350.00,270.00 390.00,270.00 390.00,162.00 470.00,162.00 470.00,270.00 510.00,270.00 510.00,30.00 470.00,30.00 470.00,138.00 390.00,138.00 390.00,30.00 350.00,30.00 " fill="#4cc9f0" fill-opacity="0.06" stroke="#4cc9f0" stroke-width="1.0" stroke-dasharray="5 3" stroke-linejoin="round"/>
  <polygon points="375.00,45.00 365.00,45.00 365.00,255.00 375.00,255.00 375.00,153.00 375.00,147.00 " fill="#f72585" fill-opacity="0.40" stroke="#f72585" stroke-width="2.0" stroke-linejoin="round"/>
  <circle cx="375.00" cy="45.00" r="3" fill="#f72585"/>
  <text x="375.00" y="38.00" font-family="monospace" font-size="6" fill="#f72585" stroke="#111" stroke-width="2" paint-order="stroke fill" text-anchor="middle">(-27,52)</text>
  <circle cx="365.00" cy="45.00" r="3" fill="#f72585"/>
  <text x="365.00" y="38.00" font-family="monospace" font-size="6" fill="#f72585" stroke="#111" stroke-width="2" paint-order="stroke fill" text-anchor="middle">(-32,52)</text>
  <circle cx="365.00" cy="255.00" r="3" fill="#f72585"/>
  <text x="365.00" y="248.00" font-family="monospace" font-size="6" fill="#f72585" stroke="#111" stroke-width="2" paint-order="stroke fill" text-anchor="middle">(-32,-52)</text>
  <circle cx="375.00" cy="255.00" r="3" fill="#f72585"/>
  <text x="375.00" y="248.00" font-family="monospace" font-size="6" fill="#f72585" stroke="#111" stroke-width="2" paint-order="stroke fill" text-anchor="middle">(-27,-52)</text>
  <circle cx="375.00" cy="153.00" r="3" fill="#f72585"/>
  <text x="375.00" y="146.00" font-family="monospace" font-size="6" fill="#f72585" stroke="#111" stroke-width="2" paint-order="stroke fill" text-anchor="middle">(-27,-1)</text>
  <circle cx="375.00" cy="147.00" r="3" fill="#f72585"/>
  <text x="375.00" y="140.00" font-family="monospace" font-size="6" fill="#f72585" stroke="#111" stroke-width="2" paint-order="stroke fill" text-anchor="middle">(-27,1)</text>
  <polygon points="495.00,45.00 485.00,45.00 485.00,147.00 485.00,153.00 485.00,255.00 495.00,255.00 " fill="#7209b7" fill-opacity="0.40" stroke="#7209b7" stroke-width="2.0" stroke-linejoin="round"/>
  <circle cx="495.00" cy="45.00" r="3" fill="#7209b7"/>
  <text x="495.00" y="38.00" font-family="monospace" font-size="6" fill="#7209b7" stroke="#111" stroke-width="2" paint-order="stroke fill" text-anchor="middle">(32,52)</text>
  <circle cx="485.00" cy="45.00" r="3" fill="#7209b7"/>
  <text x="485.00" y="38.00" font-family="monospace" font-size="6" fill="#7209b7" stroke="#111" stroke-width="2" paint-order="stroke fill" text-anchor="middle">(27,52)</text>
  <circle cx="485.00" cy="147.00" r="3" fill="#7209b7"/>
  <text x="485.00" y="140.00" font-family="monospace" font-size="6" fill="#7209b7" stroke="#111" stroke-width="2" paint-order="stroke fill" text-anchor="middle">(27,1)</text>
  <circle cx="485.00" cy="153.00" r="3" fill="#7209b7"/>
  <text x="485.00" y="146.00" font-family="monospace" font-size="6" fill="#7209b7" stroke="#111" stroke-width="2" paint-order="stroke fill" text-anchor="middle">(27,-1)</text>
  <circle cx="485.00" cy="255.00" r="3" fill="#7209b7"/>
  <text x="485.00" y="248.00" font-family="monospace" font-size="6" fill="#7209b7" stroke="#111" stroke-width="2" paint-order="stroke fill" text-anchor="middle">(27,-52)</text>
  <circle cx="495.00" cy="255.00" r="3" fill="#7209b7"/>
  <text x="495.00" y="248.00" font-family="monospace" font-size="6" fill="#7209b7" stroke="#111" stroke-width="2" paint-order="stroke fill" text-anchor="middle">(32,-52)</text>
  <text x="330.00" y="16.00" font-family="monospace" font-size="13" fill="#e0e0e0">result (2 contours)</text>
  <rect x="10.00" y="312.00" width="12" height="12" fill="#4cc9f0" rx="2"/>
  <text x="28.00" y="322.00" font-family="monospace" font-size="11" fill="#cccccc">basis</text>
  <rect x="10.00" y="330.00" width="12" height="12" fill="#f72585" rx="2"/>
  <text x="28.00" y="340.00" font-family="monospace" font-size="11" fill="#cccccc">contour 0</text>
  <rect x="10.00" y="348.00" width="12" height="12" fill="#7209b7" rx="2"/>
  <text x="28.00" y="358.00" font-family="monospace" font-size="11" fill="#cccccc">contour 1</text>
  <text x="330.00" y="322.00" font-family="monospace" font-size="11" fill="#666666">H miter collapse</text>
</svg>
