<svg xmlns="http://www.w3.org/2000/svg" width="620" height="400" style="background:#1a1a2e">
  <polygon points="30.00,270.00 70.00,270.00 70.00,160.00 150.00,160.00 150.00,270.00 190.00,270.00 190.00,30.00 150.00,30.00 150.00,140.00 70.00,140.00 70.00,30.00 30.00,30.00 " fill="#4cc9f0" fill-opacity="0.30" stroke="#90e0ef" stroke-width="2.0" stroke-linejoin="round"/>
  <circle cx="30.00" cy="270.00" r="3" fill="#90e0ef"/>
  <text x="30.00" y="263.00" font-family="monospace" font-size="9" fill="#90e0ef" text-anchor="middle">(-40,-60)</text>
  <circle cx="70.00" cy="270.00" r="3" fill="#90e0ef"/>
  <text x="70.00" y="263.00" font-family="monospace" font-size="9" fill="#90e0ef" text-anchor="middle">(-20,-60)</text>
  <circle cx="70.00" cy="160.00" r="3" fill="#90e0ef"/>
  <text x="70.00" y="153.00" font-family="monospace" font-size="9" fill="#90e0ef" text-anchor="middle">(-20,-5)</text>
  <circle cx="150.00" cy="160.00" r="3" fill="#90e0ef"/>
  <text x="150.00" y="153.00" font-family="monospace" font-size="9" fill="#90e0ef" text-anchor="middle">(20,-5)</text>
  <circle cx="150.00" cy="270.00" r="3" fill="#90e0ef"/>
  <text x="150.00" y="263.00" font-family="monospace" font-size="9" fill="#90e0ef" text-anchor="middle">(20,-60)</text>
  <circle cx="190.00" cy="270.00" r="3" fill="#90e0ef"/>
  <text x="190.00" y="263.00" font-family="monospace" font-size="9" fill="#90e0ef" text-anchor="middle">(40,-60)</text>
  <circle cx="190.00" cy="30.00" r="3" fill="#90e0ef"/>
  <text x="190.00" y="23.00" font-family="monospace" font-size="9" fill="#90e0ef" text-anchor="middle">(40,60)</text>
  <circle cx="150.00" cy="30.00" r="3" fill="#90e0ef"/>
  <text x="150.00" y="23.00" font-family="monospace" font-size="9" fill="#90e0ef" text-anchor="middle">(20,60)</text>
  <circle cx="150.00" cy="140.00" r="3" fill="#90e0ef"/>
  <text x="150.00" y="133.00" font-family="monospace" font-size="9" fill="#90e0ef" text-anchor="middle">(20,5)</text>
  <circle cx="70.00" cy="140.00" r="3" fill="#90e0ef"/>
  <text x="70.00" y="133.00" font-family="monospace" font-size="9" fill="#90e0ef" text-anchor="middle">(-20,5)</text>
  <circle cx="70.00" cy="30.00" r="3" fill="#90e0ef"/>
  <text x="70.00" y="23.00" font-family="monospace" font-size="9" fill="#90e0ef" text-anchor="middle">(-20,60)</text>
  <circle cx="30.00" cy="30.00" r="3" fill="#90e0ef"/>
  <text x="30.00" y="23.00" font-family="monospace" font-size="9" fill="#90e0ef" text-anchor="middle">(-40,60)</text>
  <text x="10.00" y="16.00" font-family="monospace" font-size="13" fill="#e0e0e0">basis</text>
  <polygon points="350.00,270.00 390.00,270.00 390.00,160.00 470.00,160.00 470.00,270.00 510.00,270.00 510.00,30.00 470.00,30.00 470.00,140.00 390.00,140.00 390.00,30.00 350.00,30.00 " fill="#4cc9f0" fill-opacity="0.06" stroke="#4cc9f0" stroke-width="1.0" stroke-dasharray="5 3" stroke-linejoin="round"/>
  <polygon points="378.00,42.00 362.00,42.00 362.00,258.00 378.00,258.00 378.00,152.00 378.00,148.00 " fill="#f72585" fill-opacity="0.40" stroke="#f72585" stroke-width="2.0" stroke-linejoin="round"/>
  <circle cx="378.00" cy="42.00" r="3" fill="#f72585"/>
  <text x="378.00" y="35.00" font-family="monospace" font-size="9" fill="#f72585" text-anchor="middle">(-26,54)</text>
  <circle cx="362.00" cy="42.00" r="3" fill="#f72585"/>
  <text x="362.00" y="35.00" font-family="monospace" font-size="9" fill="#f72585" text-anchor="middle">(-34,54)</text>
  <circle cx="362.00" cy="258.00" r="3" fill="#f72585"/>
  <text x="362.00" y="251.00" font-family="monospace" font-size="9" fill="#f72585" text-anchor="middle">(-34,-54)</text>
  <circle cx="378.00" cy="258.00" r="3" fill="#f72585"/>
  <text x="378.00" y="251.00" font-family="monospace" font-size="9" fill="#f72585" text-anchor="middle">(-26,-54)</text>
  <circle cx="378.00" cy="152.00" r="3" fill="#f72585"/>
  <text x="378.00" y="145.00" font-family="monospace" font-size="9" fill="#f72585" text-anchor="middle">(-26,-1)</text>
  <circle cx="378.00" cy="148.00" r="3" fill="#f72585"/>
  <text x="378.00" y="141.00" font-family="monospace" font-size="9" fill="#f72585" text-anchor="middle">(-26,1)</text>
  <polygon points="498.00,42.00 482.00,42.00 482.00,148.00 482.00,152.00 482.00,258.00 498.00,258.00 " fill="#7209b7" fill-opacity="0.40" stroke="#7209b7" stroke-width="2.0" stroke-linejoin="round"/>
  <circle cx="498.00" cy="42.00" r="3" fill="#7209b7"/>
  <text x="498.00" y="35.00" font-family="monospace" font-size="9" fill="#7209b7" text-anchor="middle">(34,54)</text>
  <circle cx="482.00" cy="42.00" r="3" fill="#7209b7"/>
  <text x="482.00" y="35.00" font-family="monospace" font-size="9" fill="#7209b7" text-anchor="middle">(26,54)</text>
  <circle cx="482.00" cy="148.00" r="3" fill="#7209b7"/>
  <text x="482.00" y="141.00" font-family="monospace" font-size="9" fill="#7209b7" text-anchor="middle">(26,1)</text>
  <circle cx="482.00" cy="152.00" r="3" fill="#7209b7"/>
  <text x="482.00" y="145.00" font-family="monospace" font-size="9" fill="#7209b7" text-anchor="middle">(26,-1)</text>
  <circle cx="482.00" cy="258.00" r="3" fill="#7209b7"/>
  <text x="482.00" y="251.00" font-family="monospace" font-size="9" fill="#7209b7" text-anchor="middle">(26,-54)</text>
  <circle cx="498.00" cy="258.00" r="3" fill="#7209b7"/>
  <text x="498.00" y="251.00" font-family="monospace" font-size="9" fill="#7209b7" text-anchor="middle">(34,-54)</text>
  <text x="330.00" y="16.00" font-family="monospace" font-size="13" fill="#e0e0e0">result (2 contours)</text>
  <rect x="10.00" y="312.00" width="12" height="12" fill="#4cc9f0" rx="2"/>
  <text x="28.00" y="322.00" font-family="monospace" font-size="11" fill="#cccccc">basis</text>
  <rect x="10.00" y="330.00" width="12" height="12" fill="#f72585" rx="2"/>
  <text x="28.00" y="340.00" font-family="monospace" font-size="11" fill="#cccccc">contour 0</text>
  <rect x="10.00" y="348.00" width="12" height="12" fill="#7209b7" rx="2"/>
  <text x="28.00" y="358.00" font-family="monospace" font-size="11" fill="#cccccc">contour 1</text>
  <text x="330.00" y="322.00" font-family="monospace" font-size="11" fill="#666666">H split -6 (2 shapes)</text>
</svg>
