<svg xmlns="http://www.w3.org/2000/svg" width="620" height="400" style="background:#1a1a2e">
  <polygon points="30.00,270.00 270.00,270.00 270.00,230.00 110.00,230.00 110.00,30.00 30.00,30.00 " fill="#4cc9f0" fill-opacity="0.30" stroke="#90e0ef" stroke-width="2.0" stroke-linejoin="round"/>
  <circle cx="30.00" cy="270.00" r="3" fill="#90e0ef"/>
  <text x="30.00" y="263.00" font-family="monospace" font-size="6" fill="#90e0ef" stroke="#111" stroke-width="2" paint-order="stroke fill" text-anchor="middle">(-60,-60)</text>
  <circle cx="270.00" cy="270.00" r="3" fill="#90e0ef"/>
  <text x="270.00" y="263.00" font-family="monospace" font-size="6" fill="#90e0ef" stroke="#111" stroke-width="2" paint-order="stroke fill" text-anchor="middle">(60,-60)</text>
  <circle cx="270.00" cy="230.00" r="3" fill="#90e0ef"/>
  <text x="270.00" y="223.00" font-family="monospace" font-size="6" fill="#90e0ef" stroke="#111" stroke-width="2" paint-order="stroke fill" text-anchor="middle">(60,-40)</text>
  <circle cx="110.00" cy="230.00" r="3" fill="#90e0ef"/>
  <text x="110.00" y="223.00" font-family="monospace" font-size="6" fill="#90e0ef" stroke="#111" stroke-width="2" paint-order="stroke fill" text-anchor="middle">(-20,-40)</text>
  <circle cx="110.00" cy="30.00" r="3" fill="#90e0ef"/>
  <text x="110.00" y="23.00" font-family="monospace" font-size="6" fill="#90e0ef" stroke="#111" stroke-width="2" paint-order="stroke fill" text-anchor="middle">(-20,60)</text>
  <circle cx="30.00" cy="30.00" r="3" fill="#90e0ef"/>
  <text x="30.00" y="23.00" font-family="monospace" font-size="6" fill="#90e0ef" stroke="#111" stroke-width="2" paint-order="stroke fill" text-anchor="middle">(-60,60)</text>
  <text x="10.00" y="16.00" font-family="monospace" font-size="13" fill="#e0e0e0">basis</text>
  <polygon points="350.00,270.00 590.00,270.00 590.00,230.00 430.00,230.00 430.00,30.00 350.00,30.00 " fill="#4cc9f0" fill-opacity="0.06" stroke="#4cc9f0" stroke-width="1.0" stroke-dasharray="5 3" stroke-linejoin="round"/>
  <polygon points="358.00,38.00 358.00,262.00 582.00,262.00 582.00,238.00 430.00,238.00 422.00,230.00 422.00,38.00 " fill="#f72585" fill-opacity="0.40" stroke="#f72585" stroke-width="2.0" stroke-linejoin="round"/>
  <circle cx="358.00" cy="38.00" r="3" fill="#f72585"/>
  <text x="358.00" y="31.00" font-family="monospace" font-size="6" fill="#f72585" stroke="#111" stroke-width="2" paint-order="stroke fill" text-anchor="middle">(-56,56)</text>
  <circle cx="358.00" cy="262.00" r="3" fill="#f72585"/>
  <text x="358.00" y="255.00" font-family="monospace" font-size="6" fill="#f72585" stroke="#111" stroke-width="2" paint-order="stroke fill" text-anchor="middle">(-56,-56)</text>
  <circle cx="582.00" cy="262.00" r="3" fill="#f72585"/>
  <text x="582.00" y="255.00" font-family="monospace" font-size="6" fill="#f72585" stroke="#111" stroke-width="2" paint-order="stroke fill" text-anchor="middle">(56,-56)</text>
  <circle cx="582.00" cy="238.00" r="3" fill="#f72585"/>
  <text x="582.00" y="231.00" font-family="monospace" font-size="6" fill="#f72585" stroke="#111" stroke-width="2" paint-order="stroke fill" text-anchor="middle">(56,-44)</text>
  <circle cx="430.00" cy="238.00" r="3" fill="#f72585"/>
  <text x="430.00" y="231.00" font-family="monospace" font-size="6" fill="#f72585" stroke="#111" stroke-width="2" paint-order="stroke fill" text-anchor="middle">(-20,-44)</text>
  <circle cx="422.00" cy="230.00" r="3" fill="#f72585"/>
  <text x="422.00" y="223.00" font-family="monospace" font-size="6" fill="#f72585" stroke="#111" stroke-width="2" paint-order="stroke fill" text-anchor="middle">(-24,-40)</text>
  <circle cx="422.00" cy="38.00" r="3" fill="#f72585"/>
  <text x="422.00" y="31.00" font-family="monospace" font-size="6" fill="#f72585" stroke="#111" stroke-width="2" paint-order="stroke fill" text-anchor="middle">(-24,56)</text>
  <text x="330.00" y="16.00" font-family="monospace" font-size="13" fill="#e0e0e0">result (1 contour)</text>
  <rect x="10.00" y="312.00" width="12" height="12" fill="#4cc9f0" rx="2"/>
  <text x="28.00" y="322.00" font-family="monospace" font-size="11" fill="#cccccc">basis</text>
  <rect x="10.00" y="330.00" width="12" height="12" fill="#f72585" rx="2"/>
  <text x="28.00" y="340.00" font-family="monospace" font-size="11" fill="#cccccc">contour 0</text>
  <text x="330.00" y="322.00" font-family="monospace" font-size="11" fill="#666666">L bevel in</text>
</svg>
