<svg xmlns="http://www.w3.org/2000/svg" width="620" height="400" style="background:#1a1a2e">
  <polygon points="37.50,262.50 262.50,262.50 262.50,225.00 112.50,225.00 112.50,37.50 37.50,37.50 " fill="#4cc9f0" fill-opacity="0.30" stroke="#90e0ef" stroke-width="2.0" stroke-linejoin="round"/>
  <circle cx="37.50" cy="262.50" r="3" fill="#90e0ef"/>
  <text x="37.50" y="255.50" font-family="monospace" font-size="6" fill="#90e0ef" stroke="#111" stroke-width="2" paint-order="stroke fill" text-anchor="middle">(-60,-60)</text>
  <circle cx="262.50" cy="262.50" r="3" fill="#90e0ef"/>
  <text x="262.50" y="255.50" font-family="monospace" font-size="6" fill="#90e0ef" stroke="#111" stroke-width="2" paint-order="stroke fill" text-anchor="middle">(60,-60)</text>
  <circle cx="262.50" cy="225.00" r="3" fill="#90e0ef"/>
  <text x="262.50" y="218.00" font-family="monospace" font-size="6" fill="#90e0ef" stroke="#111" stroke-width="2" paint-order="stroke fill" text-anchor="middle">(60,-40)</text>
  <circle cx="112.50" cy="225.00" r="3" fill="#90e0ef"/>
  <text x="112.50" y="218.00" font-family="monospace" font-size="6" fill="#90e0ef" stroke="#111" stroke-width="2" paint-order="stroke fill" text-anchor="middle">(-20,-40)</text>
  <circle cx="112.50" cy="37.50" r="3" fill="#90e0ef"/>
  <text x="112.50" y="30.50" font-family="monospace" font-size="6" fill="#90e0ef" stroke="#111" stroke-width="2" paint-order="stroke fill" text-anchor="middle">(-20,60)</text>
  <circle cx="37.50" cy="37.50" r="3" fill="#90e0ef"/>
  <text x="37.50" y="30.50" font-family="monospace" font-size="6" fill="#90e0ef" stroke="#111" stroke-width="2" paint-order="stroke fill" text-anchor="middle">(-60,60)</text>
  <text x="10.00" y="16.00" font-family="monospace" font-size="13" fill="#e0e0e0">basis</text>
  <polygon points="357.50,262.50 582.50,262.50 582.50,225.00 432.50,225.00 432.50,37.50 357.50,37.50 " fill="#4cc9f0" fill-opacity="0.06" stroke="#4cc9f0" stroke-width="1.0" stroke-dasharray="5 3" stroke-linejoin="round"/>
  <polygon points="440.00,217.50 440.00,37.50 432.50,30.00 357.50,30.00 350.00,37.50 350.00,262.50 357.50,270.00 582.50,270.00 590.00,262.50 590.00,225.00 582.50,217.50 " fill="#f72585" fill-opacity="0.40" stroke="#f72585" stroke-width="2.0" stroke-linejoin="round"/>
  <circle cx="440.00" cy="217.50" r="3" fill="#f72585"/>
  <text x="440.00" y="210.50" font-family="monospace" font-size="6" fill="#f72585" stroke="#111" stroke-width="2" paint-order="stroke fill" text-anchor="middle">(-16,-36)</text>
  <circle cx="440.00" cy="37.50" r="3" fill="#f72585"/>
  <text x="440.00" y="30.50" font-family="monospace" font-size="6" fill="#f72585" stroke="#111" stroke-width="2" paint-order="stroke fill" text-anchor="middle">(-16,60)</text>
  <circle cx="432.50" cy="30.00" r="3" fill="#f72585"/>
  <text x="432.50" y="23.00" font-family="monospace" font-size="6" fill="#f72585" stroke="#111" stroke-width="2" paint-order="stroke fill" text-anchor="middle">(-20,64)</text>
  <circle cx="357.50" cy="30.00" r="3" fill="#f72585"/>
  <text x="357.50" y="23.00" font-family="monospace" font-size="6" fill="#f72585" stroke="#111" stroke-width="2" paint-order="stroke fill" text-anchor="middle">(-60,64)</text>
  <circle cx="350.00" cy="37.50" r="3" fill="#f72585"/>
  <text x="350.00" y="30.50" font-family="monospace" font-size="6" fill="#f72585" stroke="#111" stroke-width="2" paint-order="stroke fill" text-anchor="middle">(-64,60)</text>
  <circle cx="350.00" cy="262.50" r="3" fill="#f72585"/>
  <text x="350.00" y="255.50" font-family="monospace" font-size="6" fill="#f72585" stroke="#111" stroke-width="2" paint-order="stroke fill" text-anchor="middle">(-64,-60)</text>
  <circle cx="357.50" cy="270.00" r="3" fill="#f72585"/>
  <text x="357.50" y="263.00" font-family="monospace" font-size="6" fill="#f72585" stroke="#111" stroke-width="2" paint-order="stroke fill" text-anchor="middle">(-60,-64)</text>
  <circle cx="582.50" cy="270.00" r="3" fill="#f72585"/>
  <text x="582.50" y="263.00" font-family="monospace" font-size="6" fill="#f72585" stroke="#111" stroke-width="2" paint-order="stroke fill" text-anchor="middle">(60,-64)</text>
  <circle cx="590.00" cy="262.50" r="3" fill="#f72585"/>
  <text x="590.00" y="255.50" font-family="monospace" font-size="6" fill="#f72585" stroke="#111" stroke-width="2" paint-order="stroke fill" text-anchor="middle">(64,-60)</text>
  <circle cx="590.00" cy="225.00" r="3" fill="#f72585"/>
  <text x="590.00" y="218.00" font-family="monospace" font-size="6" fill="#f72585" stroke="#111" stroke-width="2" paint-order="stroke fill" text-anchor="middle">(64,-40)</text>
  <circle cx="582.50" cy="217.50" r="3" fill="#f72585"/>
  <text x="582.50" y="210.50" font-family="monospace" font-size="6" fill="#f72585" stroke="#111" stroke-width="2" paint-order="stroke fill" text-anchor="middle">(60,-36)</text>
  <text x="330.00" y="16.00" font-family="monospace" font-size="13" fill="#e0e0e0">result (1 contour)</text>
  <rect x="10.00" y="312.00" width="12" height="12" fill="#4cc9f0" rx="2"/>
  <text x="28.00" y="322.00" font-family="monospace" font-size="11" fill="#cccccc">basis</text>
  <rect x="10.00" y="330.00" width="12" height="12" fill="#f72585" rx="2"/>
  <text x="28.00" y="340.00" font-family="monospace" font-size="11" fill="#cccccc">contour 0</text>
  <text x="330.00" y="322.00" font-family="monospace" font-size="11" fill="#666666">L bevel out</text>
</svg>
