<svg xmlns="http://www.w3.org/2000/svg" width="620" height="400" style="background:#1a1a2e">
  <polygon points="30.00,270.00 270.00,270.00 270.00,230.00 110.00,230.00 110.00,30.00 30.00,30.00 " fill="#4cc9f0" fill-opacity="0.30" stroke="#90e0ef" stroke-width="2.0" stroke-linejoin="round"/>
  <circle cx="30.00" cy="270.00" r="3" fill="#90e0ef"/>
  <text x="30.00" y="263.00" font-family="monospace" font-size="6" fill="#90e0ef" stroke="#111" stroke-width="2" paint-order="stroke fill" text-anchor="middle">(-60,-60)</text>
  <circle cx="270.00" cy="270.00" r="3" fill="#90e0ef"/>
  <text x="270.00" y="263.00" font-family="monospace" font-size="6" fill="#90e0ef" stroke="#111" stroke-width="2" paint-order="stroke fill" text-anchor="middle">(60,-60)</text>
  <circle cx="270.00" cy="230.00" r="3" fill="#90e0ef"/>
  <text x="270.00" y="223.00" font-family="monospace" font-size="6" fill="#90e0ef" stroke="#111" stroke-width="2" paint-order="stroke fill" text-anchor="middle">(60,-40)</text>
  <circle cx="110.00" cy="230.00" r="3" fill="#90e0ef"/>
  <text x="110.00" y="223.00" font-family="monospace" font-size="6" fill="#90e0ef" stroke="#111" stroke-width="2" paint-order="stroke fill" text-anchor="middle">(-20,-40)</text>
  <circle cx="110.00" cy="30.00" r="3" fill="#90e0ef"/>
  <text x="110.00" y="23.00" font-family="monospace" font-size="6" fill="#90e0ef" stroke="#111" stroke-width="2" paint-order="stroke fill" text-anchor="middle">(-20,60)</text>
  <circle cx="30.00" cy="30.00" r="3" fill="#90e0ef"/>
  <text x="30.00" y="23.00" font-family="monospace" font-size="6" fill="#90e0ef" stroke="#111" stroke-width="2" paint-order="stroke fill" text-anchor="middle">(-60,60)</text>
  <text x="10.00" y="16.00" font-family="monospace" font-size="13" fill="#e0e0e0">basis</text>
  <polygon points="350.00,270.00 590.00,270.00 590.00,230.00 430.00,230.00 430.00,30.00 350.00,30.00 " fill="#4cc9f0" fill-opacity="0.06" stroke="#4cc9f0" stroke-width="1.0" stroke-dasharray="5 3" stroke-linejoin="round"/>
  <polygon points="410.00,50.00 370.00,50.00 370.00,250.00 410.00,250.00 " fill="#f72585" fill-opacity="0.40" stroke="#f72585" stroke-width="2.0" stroke-linejoin="round"/>
  <circle cx="410.00" cy="50.00" r="3" fill="#f72585"/>
  <text x="410.00" y="43.00" font-family="monospace" font-size="6" fill="#f72585" stroke="#111" stroke-width="2" paint-order="stroke fill" text-anchor="middle">(-30,50)</text>
  <circle cx="370.00" cy="50.00" r="3" fill="#f72585"/>
  <text x="370.00" y="43.00" font-family="monospace" font-size="6" fill="#f72585" stroke="#111" stroke-width="2" paint-order="stroke fill" text-anchor="middle">(-50,50)</text>
  <circle cx="370.00" cy="250.00" r="3" fill="#f72585"/>
  <text x="370.00" y="243.00" font-family="monospace" font-size="6" fill="#f72585" stroke="#111" stroke-width="2" paint-order="stroke fill" text-anchor="middle">(-50,-50)</text>
  <circle cx="410.00" cy="250.00" r="3" fill="#f72585"/>
  <text x="410.00" y="243.00" font-family="monospace" font-size="6" fill="#f72585" stroke="#111" stroke-width="2" paint-order="stroke fill" text-anchor="middle">(-30,-50)</text>
  <text x="330.00" y="16.00" font-family="monospace" font-size="13" fill="#e0e0e0">result (1 contour)</text>
  <rect x="10.00" y="312.00" width="12" height="12" fill="#4cc9f0" rx="2"/>
  <text x="28.00" y="322.00" font-family="monospace" font-size="11" fill="#cccccc">basis</text>
  <rect x="10.00" y="330.00" width="12" height="12" fill="#f72585" rx="2"/>
  <text x="28.00" y="340.00" font-family="monospace" font-size="11" fill="#cccccc">contour 0</text>
  <text x="330.00" y="322.00" font-family="monospace" font-size="11" fill="#666666">L miter collapse</text>
</svg>
