<svg xmlns="http://www.w3.org/2000/svg" width="620" height="400" style="background:#1a1a2e">
  <polygon points="30.00,270.00 270.00,270.00 270.00,150.00 150.00,150.00 150.00,30.00 30.00,30.00 " fill="#4cc9f0" fill-opacity="0.30" stroke="#90e0ef" stroke-width="2.0" stroke-linejoin="round"/>
  <circle cx="30.00" cy="270.00" r="3" fill="#90e0ef"/>
  <text x="30.00" y="263.00" font-family="monospace" font-size="9" fill="#90e0ef" text-anchor="middle">(-60,-60)</text>
  <circle cx="270.00" cy="270.00" r="3" fill="#90e0ef"/>
  <text x="270.00" y="263.00" font-family="monospace" font-size="9" fill="#90e0ef" text-anchor="middle">(60,-60)</text>
  <circle cx="270.00" cy="150.00" r="3" fill="#90e0ef"/>
  <text x="270.00" y="143.00" font-family="monospace" font-size="9" fill="#90e0ef" text-anchor="middle">(60,0)</text>
  <circle cx="150.00" cy="150.00" r="3" fill="#90e0ef"/>
  <text x="150.00" y="143.00" font-family="monospace" font-size="9" fill="#90e0ef" text-anchor="middle">(0,0)</text>
  <circle cx="150.00" cy="30.00" r="3" fill="#90e0ef"/>
  <text x="150.00" y="23.00" font-family="monospace" font-size="9" fill="#90e0ef" text-anchor="middle">(0,60)</text>
  <circle cx="30.00" cy="30.00" r="3" fill="#90e0ef"/>
  <text x="30.00" y="23.00" font-family="monospace" font-size="9" fill="#90e0ef" text-anchor="middle">(-60,60)</text>
  <text x="10.00" y="16.00" font-family="monospace" font-size="13" fill="#e0e0e0">basis</text>
  <polygon points="350.00,270.00 590.00,270.00 590.00,150.00 470.00,150.00 470.00,30.00 350.00,30.00 " fill="#4cc9f0" fill-opacity="0.06" stroke="#4cc9f0" stroke-width="1.0" stroke-dasharray="5 3" stroke-linejoin="round"/>
  <polygon points="362.00,42.00 362.00,258.00 578.00,258.00 578.00,162.00 458.00,162.00 458.00,42.00 " fill="#f72585" fill-opacity="0.40" stroke="#f72585" stroke-width="2.0" stroke-linejoin="round"/>
  <circle cx="362.00" cy="42.00" r="3" fill="#f72585"/>
  <text x="362.00" y="35.00" font-family="monospace" font-size="9" fill="#f72585" text-anchor="middle">(-54,54)</text>
  <circle cx="362.00" cy="258.00" r="3" fill="#f72585"/>
  <text x="362.00" y="251.00" font-family="monospace" font-size="9" fill="#f72585" text-anchor="middle">(-54,-54)</text>
  <circle cx="578.00" cy="258.00" r="3" fill="#f72585"/>
  <text x="578.00" y="251.00" font-family="monospace" font-size="9" fill="#f72585" text-anchor="middle">(54,-54)</text>
  <circle cx="578.00" cy="162.00" r="3" fill="#f72585"/>
  <text x="578.00" y="155.00" font-family="monospace" font-size="9" fill="#f72585" text-anchor="middle">(54,-6)</text>
  <circle cx="458.00" cy="162.00" r="3" fill="#f72585"/>
  <text x="458.00" y="155.00" font-family="monospace" font-size="9" fill="#f72585" text-anchor="middle">(-6,-6)</text>
  <circle cx="458.00" cy="42.00" r="3" fill="#f72585"/>
  <text x="458.00" y="35.00" font-family="monospace" font-size="9" fill="#f72585" text-anchor="middle">(-6,54)</text>
  <text x="330.00" y="16.00" font-family="monospace" font-size="13" fill="#e0e0e0">result (1 contour)</text>
  <rect x="10.00" y="312.00" width="12" height="12" fill="#4cc9f0" rx="2"/>
  <text x="28.00" y="322.00" font-family="monospace" font-size="11" fill="#cccccc">basis</text>
  <rect x="10.00" y="330.00" width="12" height="12" fill="#f72585" rx="2"/>
  <text x="28.00" y="340.00" font-family="monospace" font-size="11" fill="#cccccc">contour 0</text>
  <text x="330.00" y="322.00" font-family="monospace" font-size="11" fill="#666666">L offset in -6</text>
</svg>
