<svg xmlns="http://www.w3.org/2000/svg" width="620" height="400" style="background:#1a1a2e">
  <polygon points="150.00,270.00 180.90,186.36 270.00,182.81 200.00,127.58 224.16,41.75 150.00,91.25 75.84,41.75 100.00,127.58 30.00,182.81 119.10,186.36 " fill="#4cc9f0" fill-opacity="0.30" stroke="#90e0ef" stroke-width="2.0" stroke-linejoin="round"/>
  <circle cx="150.00" cy="270.00" r="3" fill="#90e0ef"/>
  <text x="150.00" y="263.00" font-family="monospace" font-size="9" fill="#90e0ef" text-anchor="middle">(0,-60)</text>
  <circle cx="180.90" cy="186.36" r="3" fill="#90e0ef"/>
  <text x="180.90" y="179.36" font-family="monospace" font-size="9" fill="#90e0ef" text-anchor="middle">(14,-20)</text>
  <circle cx="270.00" cy="182.81" r="3" fill="#90e0ef"/>
  <text x="270.00" y="175.81" font-family="monospace" font-size="9" fill="#90e0ef" text-anchor="middle">(57,-18)</text>
  <circle cx="200.00" cy="127.58" r="3" fill="#90e0ef"/>
  <text x="200.00" y="120.58" font-family="monospace" font-size="9" fill="#90e0ef" text-anchor="middle">(23,7)</text>
  <circle cx="224.16" cy="41.75" r="3" fill="#90e0ef"/>
  <text x="224.16" y="34.75" font-family="monospace" font-size="9" fill="#90e0ef" text-anchor="middle">(35,48)</text>
  <circle cx="150.00" cy="91.25" r="3" fill="#90e0ef"/>
  <text x="150.00" y="84.25" font-family="monospace" font-size="9" fill="#90e0ef" text-anchor="middle">(0,25)</text>
  <circle cx="75.84" cy="41.75" r="3" fill="#90e0ef"/>
  <text x="75.84" y="34.75" font-family="monospace" font-size="9" fill="#90e0ef" text-anchor="middle">(-35,48)</text>
  <circle cx="100.00" cy="127.58" r="3" fill="#90e0ef"/>
  <text x="100.00" y="120.58" font-family="monospace" font-size="9" fill="#90e0ef" text-anchor="middle">(-23,7)</text>
  <circle cx="30.00" cy="182.81" r="3" fill="#90e0ef"/>
  <text x="30.00" y="175.81" font-family="monospace" font-size="9" fill="#90e0ef" text-anchor="middle">(-57,-18)</text>
  <circle cx="119.10" cy="186.36" r="3" fill="#90e0ef"/>
  <text x="119.10" y="179.36" font-family="monospace" font-size="9" fill="#90e0ef" text-anchor="middle">(-14,-20)</text>
  <text x="10.00" y="16.00" font-family="monospace" font-size="13" fill="#e0e0e0">basis</text>
  <polygon points="470.00,270.00 500.90,186.36 590.00,182.81 520.00,127.58 544.16,41.75 470.00,91.25 395.84,41.75 420.00,127.58 350.00,182.81 439.10,186.36 " fill="#4cc9f0" fill-opacity="0.06" stroke="#4cc9f0" stroke-width="1.0" stroke-dasharray="5 3" stroke-linejoin="round"/>
  <polygon points="450.99,169.99 470.00,221.46 489.01,169.99 543.83,167.81 500.76,133.83 515.63,81.02 470.00,111.48 424.37,81.02 439.24,133.83 396.17,167.81 " fill="#f72585" fill-opacity="0.40" stroke="#f72585" stroke-width="2.0" stroke-linejoin="round"/>
  <circle cx="450.99" cy="169.99" r="3" fill="#f72585"/>
  <text x="450.99" y="162.99" font-family="monospace" font-size="9" fill="#f72585" text-anchor="middle">(-9,-12)</text>
  <circle cx="470.00" cy="221.46" r="3" fill="#f72585"/>
  <text x="470.00" y="214.46" font-family="monospace" font-size="9" fill="#f72585" text-anchor="middle">(0,-36)</text>
  <circle cx="489.01" cy="169.99" r="3" fill="#f72585"/>
  <text x="489.01" y="162.99" font-family="monospace" font-size="9" fill="#f72585" text-anchor="middle">(9,-12)</text>
  <circle cx="543.83" cy="167.81" r="3" fill="#f72585"/>
  <text x="543.83" y="160.81" font-family="monospace" font-size="9" fill="#f72585" text-anchor="middle">(35,-11)</text>
  <circle cx="500.76" cy="133.83" r="3" fill="#f72585"/>
  <text x="500.76" y="126.83" font-family="monospace" font-size="9" fill="#f72585" text-anchor="middle">(14,4)</text>
  <circle cx="515.63" cy="81.02" r="3" fill="#f72585"/>
  <text x="515.63" y="74.02" font-family="monospace" font-size="9" fill="#f72585" text-anchor="middle">(21,29)</text>
  <circle cx="470.00" cy="111.48" r="3" fill="#f72585"/>
  <text x="470.00" y="104.48" font-family="monospace" font-size="9" fill="#f72585" text-anchor="middle">(0,15)</text>
  <circle cx="424.37" cy="81.02" r="3" fill="#f72585"/>
  <text x="424.37" y="74.02" font-family="monospace" font-size="9" fill="#f72585" text-anchor="middle">(-21,29)</text>
  <circle cx="439.24" cy="133.83" r="3" fill="#f72585"/>
  <text x="439.24" y="126.83" font-family="monospace" font-size="9" fill="#f72585" text-anchor="middle">(-14,4)</text>
  <circle cx="396.17" cy="167.81" r="3" fill="#f72585"/>
  <text x="396.17" y="160.81" font-family="monospace" font-size="9" fill="#f72585" text-anchor="middle">(-35,-11)</text>
  <text x="330.00" y="16.00" font-family="monospace" font-size="13" fill="#e0e0e0">result (1 contour)</text>
  <rect x="10.00" y="312.00" width="12" height="12" fill="#4cc9f0" rx="2"/>
  <text x="28.00" y="322.00" font-family="monospace" font-size="11" fill="#cccccc">basis</text>
  <rect x="10.00" y="330.00" width="12" height="12" fill="#f72585" rx="2"/>
  <text x="28.00" y="340.00" font-family="monospace" font-size="11" fill="#cccccc">contour 0</text>
  <text x="330.00" y="322.00" font-family="monospace" font-size="11" fill="#666666">Star offset -8</text>
</svg>
