<svg xmlns="http://www.w3.org/2000/svg" width="620" height="400" style="background:#1a1a2e">
  <polygon points="30.00,270.00 270.00,270.00 270.00,30.00 230.00,30.00 230.00,230.00 70.00,230.00 70.00,30.00 30.00,30.00 " fill="#4cc9f0" fill-opacity="0.30" stroke="#90e0ef" stroke-width="2.0" stroke-linejoin="round"/>
  <circle cx="30.00" cy="270.00" r="3" fill="#90e0ef"/>
  <text x="30.00" y="263.00" font-family="monospace" font-size="9" fill="#90e0ef" text-anchor="middle">(-60,-60)</text>
  <circle cx="270.00" cy="270.00" r="3" fill="#90e0ef"/>
  <text x="270.00" y="263.00" font-family="monospace" font-size="9" fill="#90e0ef" text-anchor="middle">(60,-60)</text>
  <circle cx="270.00" cy="30.00" r="3" fill="#90e0ef"/>
  <text x="270.00" y="23.00" font-family="monospace" font-size="9" fill="#90e0ef" text-anchor="middle">(60,60)</text>
  <circle cx="230.00" cy="30.00" r="3" fill="#90e0ef"/>
  <text x="230.00" y="23.00" font-family="monospace" font-size="9" fill="#90e0ef" text-anchor="middle">(40,60)</text>
  <circle cx="230.00" cy="230.00" r="3" fill="#90e0ef"/>
  <text x="230.00" y="223.00" font-family="monospace" font-size="9" fill="#90e0ef" text-anchor="middle">(40,-40)</text>
  <circle cx="70.00" cy="230.00" r="3" fill="#90e0ef"/>
  <text x="70.00" y="223.00" font-family="monospace" font-size="9" fill="#90e0ef" text-anchor="middle">(-40,-40)</text>
  <circle cx="70.00" cy="30.00" r="3" fill="#90e0ef"/>
  <text x="70.00" y="23.00" font-family="monospace" font-size="9" fill="#90e0ef" text-anchor="middle">(-40,60)</text>
  <circle cx="30.00" cy="30.00" r="3" fill="#90e0ef"/>
  <text x="30.00" y="23.00" font-family="monospace" font-size="9" fill="#90e0ef" text-anchor="middle">(-60,60)</text>
  <text x="10.00" y="16.00" font-family="monospace" font-size="13" fill="#e0e0e0">basis</text>
  <polygon points="350.00,270.00 590.00,270.00 590.00,30.00 550.00,30.00 550.00,230.00 390.00,230.00 390.00,30.00 350.00,30.00 " fill="#4cc9f0" fill-opacity="0.06" stroke="#4cc9f0" stroke-width="1.0" stroke-dasharray="5 3" stroke-linejoin="round"/>
  <text x="330.00" y="16.00" font-family="monospace" font-size="13" fill="#e0e0e0">result (0 contours)</text>
  <rect x="10.00" y="312.00" width="12" height="12" fill="#4cc9f0" rx="2"/>
  <text x="28.00" y="322.00" font-family="monospace" font-size="11" fill="#cccccc">basis</text>
  <text x="330.00" y="322.00" font-family="monospace" font-size="11" fill="#666666">U channel collapse -25</text>
</svg>
