<svg xmlns="http://www.w3.org/2000/svg" width="620" height="400" style="background:#1a1a2e">
  <polygon points="30.00,270.00 270.00,270.00 270.00,30.00 230.00,30.00 230.00,230.00 70.00,230.00 70.00,30.00 30.00,30.00 " fill="#4cc9f0" fill-opacity="0.30" stroke="#90e0ef" stroke-width="2.0" stroke-linejoin="round"/>
  <circle cx="30.00" cy="270.00" r="3" fill="#90e0ef"/>
  <text x="30.00" y="263.00" font-family="monospace" font-size="9" fill="#90e0ef" text-anchor="middle">(-60,-60)</text>
  <circle cx="270.00" cy="270.00" r="3" fill="#90e0ef"/>
  <text x="270.00" y="263.00" font-family="monospace" font-size="9" fill="#90e0ef" text-anchor="middle">(60,-60)</text>
  <circle cx="270.00" cy="30.00" r="3" fill="#90e0ef"/>
  <text x="270.00" y="23.00" font-family="monospace" font-size="9" fill="#90e0ef" text-anchor="middle">(60,60)</text>
  <circle cx="230.00" cy="30.00" r="3" fill="#90e0ef"/>
  <text x="230.00" y="23.00" font-family="monospace" font-size="9" fill="#90e0ef" text-anchor="middle">(40,60)</text>
  <circle cx="230.00" cy="230.00" r="3" fill="#90e0ef"/>
  <text x="230.00" y="223.00" font-family="monospace" font-size="9" fill="#90e0ef" text-anchor="middle">(40,-40)</text>
  <circle cx="70.00" cy="230.00" r="3" fill="#90e0ef"/>
  <text x="70.00" y="223.00" font-family="monospace" font-size="9" fill="#90e0ef" text-anchor="middle">(-40,-40)</text>
  <circle cx="70.00" cy="30.00" r="3" fill="#90e0ef"/>
  <text x="70.00" y="23.00" font-family="monospace" font-size="9" fill="#90e0ef" text-anchor="middle">(-40,60)</text>
  <circle cx="30.00" cy="30.00" r="3" fill="#90e0ef"/>
  <text x="30.00" y="23.00" font-family="monospace" font-size="9" fill="#90e0ef" text-anchor="middle">(-60,60)</text>
  <text x="10.00" y="16.00" font-family="monospace" font-size="13" fill="#e0e0e0">basis</text>
  <polygon points="350.00,270.00 590.00,270.00 590.00,30.00 550.00,30.00 550.00,230.00 390.00,230.00 390.00,30.00 350.00,30.00 " fill="#4cc9f0" fill-opacity="0.06" stroke="#4cc9f0" stroke-width="1.0" stroke-dasharray="5 3" stroke-linejoin="round"/>
  <polygon points="366.00,46.00 366.00,254.00 574.00,254.00 574.00,46.00 566.00,46.00 566.00,246.00 374.00,246.00 374.00,46.00 " fill="#f72585" fill-opacity="0.40" stroke="#f72585" stroke-width="2.0" stroke-linejoin="round"/>
  <circle cx="366.00" cy="46.00" r="3" fill="#f72585"/>
  <text x="366.00" y="39.00" font-family="monospace" font-size="9" fill="#f72585" text-anchor="middle">(-52,52)</text>
  <circle cx="366.00" cy="254.00" r="3" fill="#f72585"/>
  <text x="366.00" y="247.00" font-family="monospace" font-size="9" fill="#f72585" text-anchor="middle">(-52,-52)</text>
  <circle cx="574.00" cy="254.00" r="3" fill="#f72585"/>
  <text x="574.00" y="247.00" font-family="monospace" font-size="9" fill="#f72585" text-anchor="middle">(52,-52)</text>
  <circle cx="574.00" cy="46.00" r="3" fill="#f72585"/>
  <text x="574.00" y="39.00" font-family="monospace" font-size="9" fill="#f72585" text-anchor="middle">(52,52)</text>
  <circle cx="566.00" cy="46.00" r="3" fill="#f72585"/>
  <text x="566.00" y="39.00" font-family="monospace" font-size="9" fill="#f72585" text-anchor="middle">(48,52)</text>
  <circle cx="566.00" cy="246.00" r="3" fill="#f72585"/>
  <text x="566.00" y="239.00" font-family="monospace" font-size="9" fill="#f72585" text-anchor="middle">(48,-48)</text>
  <circle cx="374.00" cy="246.00" r="3" fill="#f72585"/>
  <text x="374.00" y="239.00" font-family="monospace" font-size="9" fill="#f72585" text-anchor="middle">(-48,-48)</text>
  <circle cx="374.00" cy="46.00" r="3" fill="#f72585"/>
  <text x="374.00" y="39.00" font-family="monospace" font-size="9" fill="#f72585" text-anchor="middle">(-48,52)</text>
  <text x="330.00" y="16.00" font-family="monospace" font-size="13" fill="#e0e0e0">result (1 contour)</text>
  <rect x="10.00" y="312.00" width="12" height="12" fill="#4cc9f0" rx="2"/>
  <text x="28.00" y="322.00" font-family="monospace" font-size="11" fill="#cccccc">basis</text>
  <rect x="10.00" y="330.00" width="12" height="12" fill="#f72585" rx="2"/>
  <text x="28.00" y="340.00" font-family="monospace" font-size="11" fill="#cccccc">contour 0</text>
  <text x="330.00" y="322.00" font-family="monospace" font-size="11" fill="#666666">U-shape offset -8</text>
</svg>
